<?xml version="1.0" standalone="no"?>
<!DOCTYPE svg PUBLIC "-//W3C//DTD SVG 20010904//EN"
 "http://www.w3.org/TR/2001/REC-SVG-20010904/DTD/svg10.dtd">
<svg version="1.0" xmlns="http://www.w3.org/2000/svg"
 width="1531.000000pt" height="1531.000000pt" viewBox="0 0 1531.000000 1531.000000"
 preserveAspectRatio="xMidYMid meet">
<metadata>
Created by potrace 1.14, written by Peter Selinger 2001-2017
</metadata>
<g transform="translate(0.000000,1531.000000) scale(0.100000,-0.100000)"
fill="#000000" stroke="none">
<path d="M5740 14331 c-98 -37 -277 -124 -341 -167 -28 -19 -53 -34 -55 -34
-8 0 -109 -74 -179 -131 -65 -53 -199 -186 -254 -253 -37 -46 -148 -219 -155
-243 -4 -13 -12 -23 -17 -23 -5 0 -9 -8 -9 -18 0 -10 -4 -22 -9 -27 -15 -16
-79 -197 -85 -240 -4 -23 -8 -52 -11 -65 -26 -135 -22 -332 11 -456 24 -92 78
-218 130 -302 56 -90 152 -219 184 -247 l23 -20 -6 25 c-3 14 -8 36 -11 50
-17 69 -23 283 -12 415 14 169 72 401 145 580 18 44 121 252 149 300 54 94
115 185 124 185 7 0 7 -4 0 -12 -11 -15 -69 -155 -113 -273 -16 -44 -32 -87
-36 -95 -3 -8 -7 -18 -8 -22 -2 -5 -3 -9 -5 -10 -1 -2 -3 -10 -5 -18 -1 -8
-12 -40 -23 -70 -38 -107 -100 -345 -118 -450 -19 -121 -22 -152 -23 -270 -1
-103 4 -152 24 -230 6 -27 10 -63 20 -210 3 -52 8 -113 10 -135 2 -22 7 -65
10 -95 11 -108 16 -155 20 -180 2 -14 13 -84 25 -157 11 -72 22 -137 24 -145
3 -7 7 -30 10 -50 3 -21 11 -59 17 -85 6 -27 13 -59 15 -72 3 -13 11 -50 19
-83 8 -32 21 -84 29 -115 21 -82 65 -233 72 -244 3 -5 7 -22 10 -37 3 -15 7
-34 11 -42 3 -8 7 -17 8 -20 18 -66 141 -401 175 -475 10 -22 46 -102 80 -178
72 -161 183 -380 265 -522 61 -105 215 -356 225 -365 3 -3 32 -45 65 -95 103
-155 328 -450 443 -581 15 -16 47 -54 72 -83 159 -187 501 -528 709 -707 19
-16 39 -34 45 -39 6 -6 34 -28 61 -50 28 -22 52 -42 55 -45 7 -7 138 -111 190
-151 25 -18 47 -37 48 -41 2 -5 8 -8 13 -8 5 0 42 -24 82 -53 89 -65 128 -90
133 -85 2 2 -8 49 -21 103 -14 55 -27 109 -30 120 -2 11 -6 29 -8 40 -3 11
-12 56 -21 99 -9 44 -18 82 -20 85 -2 3 -7 28 -10 55 -4 27 -9 53 -11 57 -3 4
-7 24 -10 45 -4 22 -13 75 -21 119 -26 148 -32 206 -40 405 -3 74 -5 140 -6
145 -1 24 13 343 16 370 2 17 7 58 11 93 3 35 8 72 10 82 2 10 7 40 11 67 12
84 51 276 61 303 3 8 7 22 9 30 5 28 7 33 58 190 21 63 45 131 53 150 8 19 19
44 23 55 55 139 220 431 307 540 13 17 27 35 31 40 81 110 259 295 383 400
127 107 403 285 441 285 4 0 -5 -26 -21 -57 -41 -81 -191 -423 -191 -436 0 -2
-8 -22 -17 -43 -9 -22 -18 -43 -19 -49 -3 -10 -79 -223 -92 -255 -3 -8 -6 -17
-6 -20 -1 -3 -5 -11 -9 -17 -5 -7 -6 -13 -3 -13 3 0 -4 -26 -15 -57 -20 -56
-81 -263 -99 -333 -5 -19 -14 -53 -20 -75 -6 -22 -13 -51 -16 -65 -3 -14 -11
-50 -19 -80 -14 -53 -42 -179 -51 -230 -3 -14 -7 -32 -9 -40 -2 -8 -7 -31 -10
-50 -3 -19 -15 -84 -26 -145 -11 -60 -22 -126 -25 -145 -3 -19 -7 -46 -10 -60
-3 -14 -7 -38 -8 -55 -6 -51 -17 -139 -21 -165 -12 -81 -18 -140 -30 -265 -3
-27 -7 -72 -9 -100 -15 -148 -26 -387 -26 -564 l-1 -105 -46 -85 c-56 -103
-134 -238 -178 -306 -28 -44 -64 -98 -154 -234 -204 -306 -560 -685 -827 -881
-32 -24 -60 -47 -62 -52 -2 -4 -8 -8 -12 -8 -5 0 -37 -19 -72 -42 -35 -24 -70
-44 -78 -46 -8 -2 -17 -8 -20 -12 -8 -12 -205 -104 -265 -123 -134 -42 -285
-67 -285 -47 0 5 12 31 28 57 70 123 187 414 206 516 3 12 5 22 6 22 2 0 10
31 14 55 2 8 6 26 9 40 4 14 9 36 11 50 2 14 7 32 10 40 2 8 7 33 10 55 3 22
8 51 10 65 5 26 14 92 23 170 46 402 -127 810 -448 1052 -27 20 -62 42 -79 49
-16 8 -30 17 -30 21 0 5 -5 8 -12 8 -6 0 -40 11 -74 25 -88 35 -215 43 -317
21 -42 -10 -79 -21 -82 -27 -4 -5 -13 -9 -21 -9 -8 0 -46 -21 -84 -46 -108
-71 -231 -212 -294 -339 -11 -22 -24 -41 -28 -43 -4 -2 -8 -8 -8 -14 0 -5 -13
-39 -30 -75 -16 -35 -30 -67 -30 -71 0 -4 -6 -19 -14 -34 -13 -25 -44 -120
-51 -161 -2 -9 -6 -21 -9 -25 -3 -5 -7 -19 -10 -33 -2 -13 -9 -44 -15 -69 -35
-154 -46 -396 -27 -595 7 -65 52 -291 63 -307 2 -5 6 -17 9 -28 2 -11 6 -28 8
-37 8 -31 74 -189 102 -244 92 -179 189 -304 323 -418 l24 -21 -79 -36 c-73
-33 -229 -92 -264 -99 -8 -2 -40 -10 -70 -19 -57 -16 -143 -35 -195 -41 -16
-2 -40 -6 -52 -9 -74 -16 -463 -30 -463 -17 0 3 -28 6 -63 7 -261 2 -706 132
-950 276 -78 47 -226 186 -275 259 -95 142 -160 335 -178 529 -11 120 -6 350
10 435 2 11 7 42 10 68 4 27 9 59 12 70 2 12 7 38 10 57 16 97 116 434 158
532 l16 36 62 -19 c35 -11 97 -31 138 -44 41 -13 143 -44 225 -70 83 -25 157
-49 165 -52 8 -3 20 -7 25 -9 6 -1 46 -14 89 -28 43 -14 82 -26 87 -26 4 0 18
-4 31 -9 13 -5 26 -9 30 -10 4 -1 27 -9 50 -17 24 -9 48 -17 53 -18 6 -1 16
-5 23 -9 6 -5 12 -6 12 -2 0 3 16 -2 36 -10 42 -17 58 -10 69 32 3 15 14 43
23 62 8 20 16 41 17 46 1 6 8 24 15 40 6 17 29 75 50 130 71 184 65 175 113
176 23 0 87 3 142 5 55 2 126 5 159 6 l58 1 102 156 c56 86 129 199 161 251
33 52 64 100 68 105 4 6 70 108 147 227 l138 217 -76 58 c-43 32 -79 61 -82
64 -3 3 -32 25 -65 50 -56 41 -70 52 -115 89 -10 8 -29 23 -42 32 -21 16 -248
189 -274 209 -7 6 -35 -9 -75 -40 -176 -135 -325 -321 -409 -513 -39 -91 -44
-104 -54 -145 -3 -10 -5 -18 -6 -18 -2 0 -6 -18 -15 -64 -3 -19 -8 -37 -10
-40 -6 -11 -16 -92 -20 -163 -2 -38 -5 -72 -7 -74 -3 -2 -45 5 -94 17 -49 11
-98 21 -109 23 -11 1 -45 8 -75 14 -30 6 -66 14 -80 16 -14 3 -70 14 -125 26
-55 12 -107 23 -116 25 -9 2 -59 12 -110 24 -137 29 -151 32 -181 35 -16 2
-28 1 -29 -3 -2 -19 -11 -76 -24 -151 -8 -47 -17 -107 -21 -135 -3 -27 -8 -59
-11 -70 -2 -11 -6 -33 -8 -50 -2 -16 -7 -46 -10 -65 -4 -19 -9 -51 -12 -70 -2
-19 -6 -44 -7 -55 -2 -11 -4 -25 -5 -32 0 -6 -9 -9 -18 -7 -43 10 -240 10
-258 1 -66 -34 -205 -170 -288 -281 -54 -72 -117 -171 -117 -183 0 -3 -6 -14
-13 -22 -25 -30 -128 -285 -142 -351 -2 -8 -8 -28 -14 -44 -7 -16 -9 -31 -6
-34 2 -3 1 -10 -4 -16 -5 -6 -11 -27 -14 -46 -3 -19 -8 -44 -10 -55 -33 -144
-47 -379 -33 -550 5 -70 16 -154 21 -175 2 -8 7 -28 10 -45 53 -305 224 -618
444 -815 129 -115 377 -256 501 -285 8 -2 34 -10 58 -19 40 -14 159 -42 227
-53 17 -2 41 -6 55 -9 134 -24 582 -23 621 2 8 5 9 3 4 -6 -5 -7 -4 -11 1 -7
5 3 43 8 84 12 41 3 82 8 90 10 8 2 38 7 65 10 92 10 243 37 344 61 36 9 74
18 85 21 27 6 38 9 56 16 12 5 84 26 110 32 32 7 210 76 280 107 68 31 56 24
255 132 11 6 23 16 27 21 5 7 8 7 8 0 0 -6 3 -6 8 1 4 6 36 30 72 54 88 59
189 141 277 224 70 66 77 70 161 92 73 18 205 60 262 81 8 4 17 7 20 8 166 57
578 255 682 327 14 10 31 18 37 18 6 0 11 5 11 10 0 6 5 10 11 10 17 0 362
229 434 287 6 5 51 40 100 78 96 73 122 95 231 190 127 111 168 149 304 285
144 145 225 231 305 325 28 33 64 75 81 94 57 66 148 185 251 326 57 77 106
145 111 150 19 24 224 349 274 435 158 270 285 518 388 755 12 28 28 64 36 80
22 48 103 263 135 355 31 89 115 377 123 420 7 37 15 70 20 88 3 9 8 37 11 62
4 24 8 47 10 50 2 3 6 24 9 46 4 22 8 49 10 59 2 11 7 47 11 80 4 32 8 67 10
76 9 45 18 211 18 344 1 192 -10 332 -39 510 -19 112 -74 324 -107 405 -14 35
-23 59 -38 100 -23 65 -112 244 -162 330 -147 248 -376 513 -598 692 -90 73
-339 238 -339 225 0 -2 11 -39 25 -81 13 -43 27 -94 30 -113 3 -19 7 -38 9
-42 8 -12 19 -155 17 -231 -1 -86 -8 -158 -22 -215 -5 -22 -12 -53 -15 -70 -9
-50 -73 -213 -105 -266 -16 -28 -29 -52 -29 -56 0 -7 -88 -131 -117 -163 -12
-14 -30 -34 -40 -46 -10 -11 -46 -52 -80 -90 -69 -77 -87 -98 -123 -143 -14
-18 -30 -37 -36 -44 -103 -118 -394 -550 -394 -585 0 -5 -4 -12 -9 -14 -9 -3
-144 -266 -176 -343 -76 -181 -161 -412 -181 -495 -2 -8 -15 -58 -29 -110 -14
-52 -27 -106 -30 -120 -3 -14 -7 -36 -10 -50 -42 -211 -47 -241 -60 -370 -12
-124 -16 -165 -19 -236 -1 -39 -6 -75 -9 -81 -4 -7 -3 -14 3 -18 6 -4 8 -11 4
-16 -8 -13 -8 -224 0 -237 3 -6 2 -13 -4 -17 -6 -4 -7 -12 -3 -18 4 -7 8 -52
10 -100 l2 -88 -37 22 c-20 13 -39 25 -42 28 -3 4 -27 21 -55 40 -131 91 -423
364 -550 515 -22 27 -45 53 -50 60 -109 123 -465 624 -465 655 0 5 -3 11 -7
13 -5 2 -15 15 -23 30 -8 15 -59 103 -112 195 -95 166 -179 320 -217 398 -10
22 -52 110 -94 195 -136 283 -294 651 -407 950 -34 91 -66 176 -72 190 -6 14
-13 34 -15 44 -2 11 -8 25 -14 33 -6 7 -9 13 -6 13 4 0 -6 30 -20 68 -37 97
-163 482 -163 498 0 8 4 14 9 14 16 0 132 70 211 128 80 59 227 203 266 261
13 20 35 52 48 71 39 59 84 151 116 240 17 47 31 87 31 90 0 3 2 14 4 25 38
169 38 302 1 466 -8 35 -17 78 -20 94 -3 17 -10 53 -16 80 -18 86 -26 136 -40
250 -26 199 -6 395 50 509 11 22 18 41 17 42 -1 1 -36 -10 -77 -25z m333
-7040 c59 -36 184 -190 191 -235 1 -6 6 -18 11 -26 25 -39 78 -184 96 -265 36
-156 41 -199 42 -340 1 -136 -7 -194 -39 -304 -31 -106 -157 -338 -206 -379
-21 -17 -110 38 -189 117 -66 66 -150 184 -164 231 -4 14 -11 30 -16 35 -16
20 -58 171 -74 265 -15 86 -21 290 -11 375 24 210 96 413 174 496 57 60 120
70 185 30z"/>
<path d="M11068 10748 c-61 -184 -119 -349 -163 -463 -15 -38 -28 -74 -29 -80
-1 -5 -10 -27 -19 -49 -9 -21 -17 -41 -17 -43 0 -3 -6 -19 -14 -36 -8 -18 -33
-79 -56 -137 -23 -58 -47 -111 -52 -117 -6 -7 -8 -13 -5 -13 5 0 -6 -28 -68
-165 -7 -16 -43 -97 -80 -180 -68 -152 -269 -564 -348 -710 -23 -44 -61 -114
-82 -155 -22 -41 -42 -77 -46 -80 -3 -3 -18 -30 -33 -60 -16 -30 -32 -60 -37
-66 -5 -6 -21 -33 -35 -60 -14 -27 -36 -65 -48 -84 -13 -19 -58 -93 -101 -165
-84 -140 -313 -491 -386 -592 -24 -33 -51 -71 -59 -83 -78 -115 -451 -594
-530 -680 -8 -9 -42 -47 -75 -85 -230 -267 -572 -609 -835 -836 -36 -31 -76
-65 -89 -75 -13 -10 -31 -26 -40 -35 -9 -9 -70 -58 -136 -110 -66 -51 -124
-97 -130 -101 -10 -9 -102 -77 -140 -103 -11 -8 -48 -35 -83 -60 -34 -25 -66
-45 -71 -45 -5 0 -11 -3 -13 -8 -1 -4 -55 -40 -118 -81 -63 -41 -131 -84 -150
-96 -114 -73 -532 -305 -560 -310 -3 -1 -34 -15 -70 -32 -177 -84 -693 -256
-895 -298 -11 -2 -83 -18 -160 -35 -177 -40 -178 -40 -305 -64 -108 -20 -158
-28 -247 -41 -18 -3 -47 -7 -63 -10 -17 -2 -50 -7 -73 -10 -23 -3 -59 -8 -79
-11 -20 -3 -54 -7 -75 -9 -89 -8 -160 -16 -188 -20 -27 -4 -87 -9 -230 -20
-67 -5 -251 -16 -350 -20 -117 -5 -610 -5 -677 0 -44 4 -58 1 -58 -8 0 -38
347 -600 400 -647 3 -3 14 -18 25 -35 25 -40 164 -217 181 -231 8 -6 14 -14
14 -18 0 -3 8 -14 18 -24 9 -10 40 -44 67 -76 28 -32 66 -75 85 -96 19 -20 58
-61 86 -91 68 -71 244 -240 323 -309 35 -30 68 -60 75 -65 26 -24 215 -175
271 -216 33 -24 62 -47 63 -51 2 -5 8 -8 13 -8 6 0 23 -10 38 -21 16 -12 34
-18 41 -14 10 6 69 24 130 40 8 2 58 15 110 30 52 14 120 33 150 41 30 8 80
22 110 31 30 9 60 18 65 19 21 6 56 14 73 18 9 2 29 9 45 15 15 6 38 13 50 15
12 2 96 25 187 51 91 26 172 48 180 50 8 2 30 8 48 14 18 5 34 10 37 11 3 0
10 2 17 4 7 3 27 8 43 12 43 10 31 7 255 69 113 31 212 59 220 62 8 3 20 7 25
8 6 2 46 12 90 24 44 12 89 24 100 27 11 3 -14 -14 -55 -37 -41 -24 -76 -46
-78 -51 -2 -4 -8 -8 -14 -8 -5 0 -48 -23 -95 -50 -47 -28 -89 -50 -94 -50 -5
0 -9 -5 -9 -12 0 -6 -3 -8 -6 -5 -4 4 -19 -2 -33 -12 -14 -10 -43 -28 -63 -39
-21 -12 -223 -128 -450 -258 -227 -131 -426 -245 -443 -253 -16 -9 -32 -18
-35 -21 -3 -3 -22 -14 -43 -24 -21 -11 -36 -24 -34 -30 6 -19 354 -190 527
-258 41 -17 81 -35 88 -40 6 -6 12 -8 12 -5 0 4 19 -2 43 -12 46 -20 316 -111
387 -131 25 -7 58 -17 74 -23 17 -6 37 -12 45 -13 9 -1 61 -13 116 -27 94 -24
207 -49 230 -52 6 0 24 -4 40 -8 17 -4 46 -9 65 -11 19 -3 46 -7 60 -10 14 -3
48 -8 75 -11 28 -2 66 -7 85 -9 19 -3 61 -7 92 -10 32 -3 68 -8 80 -10 30 -7
102 -15 218 -24 186 -14 817 -5 872 12 7 3 45 7 83 11 39 3 81 7 95 10 14 3
44 7 65 9 68 8 119 16 138 22 9 3 34 7 55 9 20 3 48 7 62 10 14 3 45 10 70 15
25 4 56 11 70 14 14 3 35 8 48 11 49 11 59 14 118 29 33 8 69 17 80 19 10 2
26 7 34 10 14 6 87 25 102 28 13 1 322 107 353 120 17 7 32 13 35 13 3 1 21 7
40 15 358 141 756 352 1070 566 112 76 332 239 361 267 8 7 39 33 69 58 276
225 640 610 853 900 27 36 54 72 61 80 19 24 208 309 248 375 60 100 171 304
226 418 55 113 132 286 136 307 1 3 5 11 9 17 14 23 154 411 162 453 2 8 4 15
5 15 1 0 3 7 5 15 2 8 18 65 35 125 50 181 104 426 116 524 3 25 7 48 9 51 2
3 7 32 10 65 7 58 12 90 15 90 1 0 3 20 4 45 2 25 7 72 10 105 4 33 9 80 11
105 5 47 15 216 18 313 1 32 -2 57 -8 57 -6 0 -6 3 0 8 14 10 7 394 -10 532
-2 19 -7 62 -10 95 -8 94 -21 192 -30 235 -3 14 -7 45 -10 70 -3 25 -7 56 -10
70 -4 14 -9 39 -12 55 -6 35 -14 45 -20 28 -4 -12 -171 -292 -193 -323 -11
-17 -124 -194 -143 -225 -30 -48 -420 -631 -426 -635 -4 -3 -23 -30 -44 -60
-62 -91 -72 -105 -79 -108 -5 -2 -8 -10 -8 -17 0 -7 -4 -15 -8 -17 -4 -1 -44
-52 -87 -113 -44 -60 -85 -117 -92 -125 -6 -8 -37 -49 -68 -90 -31 -41 -66
-88 -78 -104 -58 -78 -356 -451 -404 -507 -21 -25 -51 -62 -68 -83 -16 -21
-41 -51 -55 -66 -14 -15 -41 -47 -60 -70 -19 -24 -39 -48 -45 -54 -5 -6 -28
-32 -50 -57 -22 -24 -69 -78 -105 -118 -36 -41 -78 -89 -95 -107 -16 -17 -68
-74 -115 -125 -110 -122 -598 -610 -718 -719 -136 -124 -144 -131 -202 -180
-28 -25 -64 -56 -78 -70 -15 -14 -81 -70 -147 -124 -66 -54 -129 -106 -140
-115 -11 -9 -58 -46 -105 -81 -46 -36 -90 -69 -96 -75 -6 -5 -23 -19 -38 -30
-16 -11 -47 -34 -70 -51 -22 -17 -97 -70 -166 -117 -69 -48 -130 -90 -135 -94
-39 -30 -157 -103 -165 -103 -5 0 -10 -3 -10 -8 0 -4 -9 -12 -19 -17 -11 -6
-80 -46 -153 -90 -73 -44 -160 -95 -193 -113 -125 -68 -522 -262 -538 -262
-10 0 -17 -4 -17 -10 0 -5 -7 -10 -15 -10 -8 0 -34 -9 -58 -20 -48 -22 -197
-81 -212 -84 -26 -5 -91 -29 -100 -37 -5 -5 -18 -9 -30 -9 -12 0 -26 -5 -33
-12 -7 -7 -12 -9 -12 -6 0 4 -16 0 -36 -8 -36 -15 -63 -10 -34 6 8 4 37 29 64
55 27 25 85 78 129 118 44 40 97 88 118 107 20 19 57 52 81 74 53 48 199 180
243 221 17 17 74 68 125 115 52 47 104 94 116 105 12 11 60 55 107 98 47 43
95 86 105 95 20 17 177 160 238 217 18 17 63 58 101 91 37 34 84 77 104 95 46
44 216 199 239 219 16 14 163 148 220 200 89 82 198 181 219 199 12 11 65 59
117 107 87 80 106 107 86 116 -4 2 -36 39 -72 83 -36 44 -70 86 -77 93 -7 7
-49 58 -94 113 -54 66 -85 96 -93 91 -80 -64 -440 -312 -451 -312 -2 0 -30
-17 -62 -38 -63 -42 -271 -167 -423 -254 -228 -131 -587 -313 -825 -417 -27
-13 -63 -28 -80 -36 -16 -7 -70 -29 -120 -50 -49 -20 -98 -41 -107 -46 -10 -5
-35 -15 -55 -23 -21 -7 -83 -30 -138 -51 -110 -40 -234 -85 -250 -89 -5 -2
-17 -6 -25 -9 -8 -3 -46 -15 -85 -27 -38 -11 -77 -24 -85 -27 -8 -3 -19 -7
-25 -7 -5 -1 -37 -10 -70 -20 -92 -28 -285 -78 -346 -90 -13 -2 -46 -10 -74
-16 -27 -7 -59 -14 -70 -16 -11 -1 -31 -5 -45 -8 -26 -6 -122 -24 -162 -31
-180 -30 -222 -36 -236 -34 -9 1 -19 0 -22 -1 -12 -4 -50 -9 -115 -15 -38 -4
-86 -8 -105 -10 -85 -9 -440 -14 -440 -7 0 5 6 9 13 10 18 1 72 10 72 12 0 1
9 3 20 5 27 5 188 50 247 68 26 8 49 12 52 9 4 -3 6 1 6 8 0 7 3 11 6 7 5 -5
358 109 409 133 11 5 63 26 115 46 52 20 106 41 120 47 14 6 27 11 30 12 3 0
27 11 54 23 27 12 50 22 52 22 3 0 45 18 139 60 72 32 481 233 485 238 3 4 10
8 16 9 5 1 63 31 127 67 65 36 120 66 123 66 2 0 21 11 42 24 20 13 116 70
212 127 96 57 180 107 185 112 6 4 93 63 195 130 102 68 205 138 230 156 25
18 57 40 72 49 16 9 28 20 28 25 0 4 6 7 14 7 8 0 16 4 18 8 2 5 37 33 78 62
41 30 77 57 80 60 3 4 32 26 65 51 61 45 89 66 109 84 6 6 56 46 111 89 55 44
102 82 105 85 3 3 32 28 65 56 33 27 62 52 65 55 3 3 36 32 75 65 38 33 79 69
91 80 12 11 66 61 120 110 266 244 491 472 804 815 8 9 42 47 75 85 33 39 62
72 65 75 10 10 76 87 115 134 22 27 45 54 50 60 27 28 253 315 343 436 56 74
106 140 110 145 12 15 173 242 217 304 94 135 248 370 342 521 56 91 107 170
113 177 5 7 10 14 10 16 0 2 49 87 108 188 60 101 124 213 143 249 19 36 37
67 42 68 4 2 7 8 7 13 0 5 24 53 54 106 67 122 238 451 241 463 1 3 33 70 72
150 39 80 87 181 108 225 20 44 45 97 55 117 l18 38 -71 92 c-203 268 -501
582 -757 798 -35 30 -73 63 -84 73 -11 9 -22 17 -25 17 -4 0 -32 -78 -63 -172z
m1110 -5300 c110 -265 110 -560 0 -826 -17 -43 -40 -88 -50 -101 -10 -13 -18
-29 -18 -35 -1 -16 -130 -187 -215 -282 -11 -12 -29 -33 -39 -46 -42 -51 -132
-155 -163 -188 -18 -19 -42 -46 -53 -59 -116 -138 -577 -606 -769 -781 -57
-52 -111 -102 -120 -111 -17 -16 -208 -181 -251 -217 -49 -40 -175 -143 -190
-155 -8 -7 -56 -44 -105 -83 -50 -39 -117 -90 -150 -114 -33 -24 -62 -47 -65
-50 -3 -4 -23 -19 -45 -33 -37 -24 -196 -135 -220 -154 -20 -15 -70 -44 -115
-66 -25 -12 -47 -25 -50 -28 -3 -4 -16 -10 -30 -14 -14 -4 -38 -13 -55 -20
-39 -16 -112 -41 -150 -51 -16 -4 -32 -8 -35 -9 -8 -2 -103 -18 -130 -22 -14
-2 -83 -5 -154 -6 -115 -2 -255 13 -341 37 -11 3 -45 12 -75 20 -104 28 -195
54 -219 63 -22 9 -18 12 50 53 247 147 790 521 1109 764 129 98 377 293 390
306 3 3 21 17 40 31 19 15 46 37 60 49 14 12 45 38 69 58 65 54 340 290 385
332 48 44 67 61 202 185 134 123 580 569 689 689 44 48 91 100 105 114 14 15
72 81 129 147 56 66 113 131 125 145 12 14 57 70 101 125 44 55 87 107 95 117
8 9 60 78 115 152 55 74 103 135 107 136 3 0 20 -33 36 -72z"/>
<path d="M10470 6058 c-67 -87 -328 -354 -440 -450 -36 -31 -117 -98 -180
-148 -158 -127 -147 -112 -119 -152 13 -18 26 -35 30 -38 4 -3 47 -68 97 -145
50 -77 123 -190 163 -252 47 -72 77 -109 84 -105 7 4 28 19 46 35 19 15 77 61
129 103 111 88 107 85 230 189 186 157 365 334 443 437 l28 37 -101 133 c-56
73 -112 145 -126 160 -13 15 -24 30 -24 34 0 3 -6 11 -12 18 -7 8 -49 61 -93
119 -44 58 -83 106 -86 106 -3 1 -34 -36 -69 -81z"/>
</g>
</svg>
